# xmcd CD database file
#
# Track frame offsets:
#	150
#	60423
#	114915
#
# Disc length: 2999 seconds
#
# Revision: 0
# Processed by: cddbd v1.5.2PL0 Copyright (c) Steve Scherf et al.
# Submitted via: CDex 1.51
#
DISCID=1a0bb503
DTITLE=Blow - All Empires Must Fall
DYEAR=1900
DGENRE=Jazz
TTITLE0=All Empires Must Fall
TTITLE1=Jealous Dog
TTITLE2=Thumbzup
EXTD=
EXTT0=
EXTT1=
EXTT2=
PLAYORDER=
